<svg xmlns="http://www.w3.org/2000/svg" viewBox="0 0 128 128"><path d="M81.504 9.465c.973 1.207 1.469 2.836 2.457 6.09l21.656 71.136a90.079 90.079 0 00-25.89-8.765L65.629 30.28a1.833 1.833 0 00-3.52.004L48.18 77.902a90.104 90.104 0 00-25.857 8.762L43.89 15.555c.988-3.254 1.484-4.883 2.457-6.09a8 8 0 013.18-2.318c1.418-.59 3.11-.59 6.49-.59h13.836c3.38 0 5.073 0 6.49.59a8 8 0 013.18 2.318z" fill="#fff"/><path d="M64.09 95.89c-5.907 4.558-17.723 7.67-31.34 7.67-17.384 0-31.97-5.088-35.25-11.93-.924 3.467-1.07 7.452-1.07 9.87 0 0-.534 8.768 5.536 14.838A5.998 5.998 0 017.966 110c6.756 0 12.236 5.48 12.236 12.236 0 6.48-4.003 12.025-9.674 14.295C15.633 127.18 22.333 128 29.5 128c21.14 0 38.36-10.617 43.27-25.443-2.702-1.766-5.836-4.152-8.68-6.667z" fill="#ff5d01"/></svg>
